<svg width="73" height="37" viewBox="0 0 73 37" fill="none" xmlns="http://www.w3.org/2000/svg">
<mask id="path-1-outside-1_46_127" maskUnits="userSpaceOnUse" x="-1" y="-1" width="75" height="39" fill="black">
<rect fill="white" x="-1" y="-1" width="75" height="39"/>
<path d="M1.54 0.721999H7.326C8.69 0.721999 9.73867 0.824666 10.472 1.03C11.22 1.22067 11.748 1.536 12.056 1.976C12.364 2.40133 12.518 3.00267 12.518 3.78V5.54C12.518 5.936 12.3567 6.31 12.034 6.662C11.726 7.014 11.3593 7.256 10.934 7.388V7.498C11.4913 7.55667 11.9973 7.79867 12.452 8.224C12.9213 8.63467 13.156 9.09667 13.156 9.61V11.81C13.156 12.9687 12.694 13.79 11.77 14.274C10.846 14.758 9.416 15 7.48 15H1.54V0.721999ZM7.326 6.53C7.86867 6.53 8.272 6.486 8.536 6.398C8.8 6.31 8.976 6.17067 9.064 5.98C9.16667 5.77467 9.218 5.48133 9.218 5.1V4.396C9.218 4.05867 9.174 3.80933 9.086 3.648C8.998 3.472 8.81467 3.34733 8.536 3.274C8.272 3.20067 7.84667 3.164 7.26 3.164H4.972V6.53H7.326ZM7.414 12.558C8.25 12.558 8.844 12.4627 9.196 12.272C9.548 12.0813 9.724 11.7733 9.724 11.348V10.204C9.724 9.676 9.58467 9.302 9.306 9.082C9.042 8.862 8.56533 8.752 7.876 8.752H4.972V12.558H7.414ZM20.7188 15.22C16.9495 15.22 15.0648 14.0687 15.0648 11.766V7.938C15.0648 6.60333 15.4902 5.63533 16.3408 5.034C17.2062 4.43267 18.5335 4.132 20.3228 4.132C22.0095 4.132 23.2415 4.42533 24.0188 5.012C24.8108 5.584 25.2068 6.55933 25.2068 7.938V10.534H18.2988V11.502C18.2988 12.118 18.5188 12.558 18.9588 12.822C19.3988 13.086 20.1908 13.218 21.3348 13.218C22.3908 13.218 23.5788 13.064 24.8988 12.756V14.802C23.5935 15.0807 22.2002 15.22 20.7188 15.22ZM22.1488 8.708V7.168C22.1488 6.816 22.0022 6.552 21.7088 6.376C21.4302 6.2 20.9535 6.112 20.2788 6.112C19.5015 6.112 18.9808 6.2 18.7168 6.376C18.4382 6.56667 18.2988 6.83067 18.2988 7.168V8.708H22.1488ZM30.6759 15.22C29.6786 15.22 28.9306 15.132 28.4319 14.956C27.9479 14.7653 27.6032 14.4353 27.3979 13.966C27.2072 13.482 27.1119 12.7633 27.1119 11.81C27.1119 10.9593 27.2146 10.292 27.4199 9.808C27.6399 9.324 27.9846 8.97933 28.4539 8.774C28.9379 8.554 29.5979 8.444 30.4339 8.444H34.0419V7.718C34.0419 7.26333 33.9759 6.926 33.8439 6.706C33.7266 6.486 33.4992 6.332 33.1619 6.244C32.8392 6.156 32.3479 6.112 31.6879 6.112C30.7786 6.112 29.5319 6.2 27.9479 6.376V4.352C29.1066 4.20533 30.4632 4.132 32.0179 4.132C33.3819 4.132 34.4306 4.23467 35.1639 4.44C35.9119 4.64533 36.4472 4.99733 36.7699 5.496C37.0926 5.99467 37.2539 6.72067 37.2539 7.674V15H34.1079V14.032C33.8586 14.4573 33.5212 14.758 33.0959 14.934C32.6706 15.1247 31.8639 15.22 30.6759 15.22ZM31.9299 13.218C32.5752 13.218 33.0372 13.196 33.3159 13.152C33.5212 13.1227 33.6606 13.0787 33.7339 13.02C33.8219 12.9613 33.8952 12.866 33.9539 12.734C34.0126 12.6313 34.0419 12.4773 34.0419 12.272V10.204H31.8419C31.3432 10.204 30.9912 10.2407 30.7859 10.314C30.5806 10.3727 30.4412 10.5047 30.3679 10.71C30.2946 10.9007 30.2579 11.2453 30.2579 11.744C30.2579 12.228 30.2946 12.5653 30.3679 12.756C30.4412 12.9467 30.5806 13.0713 30.7859 13.13C31.0059 13.1887 31.3872 13.218 31.9299 13.218ZM43.7759 15.22C42.4119 15.22 41.4512 14.978 40.8939 14.494C40.3512 13.9953 40.0799 13.218 40.0799 12.162V4.352H43.2919V11.722C43.2919 12.1327 43.3285 12.4407 43.4019 12.646C43.4899 12.8513 43.6512 12.998 43.8859 13.086C44.1352 13.174 44.5092 13.218 45.0079 13.218C45.6385 13.218 46.1005 13.1813 46.3939 13.108C46.6872 13.02 46.8852 12.8733 46.9879 12.668C47.0905 12.4627 47.1419 12.1473 47.1419 11.722V4.352H50.3539V15H47.1859V13.702C46.9512 14.714 45.8145 15.22 43.7759 15.22ZM58.4879 15.22C57.9452 15.22 57.4905 15.198 57.1239 15.154C56.7572 15.11 56.3905 15.022 56.0239 14.89C55.6132 14.758 55.2759 14.5747 55.0119 14.34C54.7625 14.1053 54.5572 13.7827 54.3959 13.372C54.2199 12.9467 54.1319 12.4553 54.1319 11.898V6.332H51.9759V4.352H54.1319V1.272H57.3439V4.352H60.2699V6.332H57.3439V11.348C57.3439 11.8613 57.3879 12.25 57.4759 12.514C57.5639 12.7633 57.7325 12.9467 57.9819 13.064C58.2312 13.1667 58.6125 13.218 59.1259 13.218C59.3312 13.218 59.7125 13.1813 60.2699 13.108V15.11C59.5805 15.1833 58.9865 15.22 58.4879 15.22ZM65.1368 14.912L60.8908 4.352H64.3888L66.7868 11.876L68.9648 4.352H72.2868L66.4568 19.576H63.2008L65.1368 14.912ZM0.88 33.91L8.316 24.164H1.1V21.722H12.54V23.79L5.104 33.536H12.672V36H0.88V33.91ZM19.9827 36.22C19.3227 36.22 18.78 36.198 18.3547 36.154C17.9294 36.11 17.4747 36.022 16.9907 35.89C16.4627 35.7433 16.0374 35.538 15.7147 35.274C15.392 34.9953 15.1207 34.6067 14.9007 34.108C14.6807 33.624 14.5707 33.0373 14.5707 32.348V29.202C14.5707 28.498 14.6807 27.882 14.9007 27.354C15.1207 26.826 15.4067 26.4153 15.7587 26.122C16.0667 25.8727 16.47 25.6673 16.9687 25.506C17.482 25.33 17.9807 25.22 18.4647 25.176C19.022 25.1467 19.528 25.132 19.9827 25.132C20.6574 25.132 21.1927 25.154 21.5887 25.198C21.9994 25.2273 22.4467 25.3153 22.9307 25.462C23.4587 25.6233 23.884 25.8433 24.2067 26.122C24.544 26.4007 24.83 26.7967 25.0647 27.31C25.2847 27.838 25.3947 28.4687 25.3947 29.202V32.348C25.3947 33.008 25.2847 33.5873 25.0647 34.086C24.8594 34.5847 24.588 34.9733 24.2507 35.252C23.9574 35.5013 23.554 35.7067 23.0407 35.868C22.542 36.0147 22.0507 36.11 21.5667 36.154C21.1267 36.198 20.5987 36.22 19.9827 36.22ZM19.9827 34.218C20.584 34.218 21.0387 34.174 21.3467 34.086C21.6547 33.9833 21.8674 33.8293 21.9847 33.624C22.1167 33.4187 22.1827 33.118 22.1827 32.722V28.696C22.1827 28.1093 22.0287 27.6987 21.7207 27.464C21.4127 27.2293 20.8334 27.112 19.9827 27.112C19.132 27.112 18.5527 27.2293 18.2447 27.464C17.9367 27.6987 17.7827 28.1093 17.7827 28.696V32.722C17.7827 33.118 17.8414 33.4187 17.9587 33.624C18.0907 33.8293 18.3107 33.9833 18.6187 34.086C18.9267 34.174 19.3814 34.218 19.9827 34.218ZM27.8982 25.352H31.0662V26.65C31.3156 25.638 32.4522 25.132 34.4762 25.132C35.8402 25.132 36.7936 25.3813 37.3362 25.88C37.8936 26.364 38.1722 27.134 38.1722 28.19V36H34.9602V28.608C34.9602 28.1973 34.9162 27.8893 34.8282 27.684C34.7549 27.4787 34.5936 27.332 34.3442 27.244C34.1096 27.156 33.7429 27.112 33.2442 27.112C32.6136 27.112 32.1516 27.156 31.8582 27.244C31.5649 27.3173 31.3669 27.4567 31.2642 27.662C31.1616 27.8673 31.1102 28.1827 31.1102 28.608V36H27.8982V25.352ZM46.3282 36.22C42.5589 36.22 40.6742 35.0687 40.6742 32.766V28.938C40.6742 27.6033 41.0996 26.6353 41.9502 26.034C42.8156 25.4327 44.1429 25.132 45.9322 25.132C47.6189 25.132 48.8509 25.4253 49.6282 26.012C50.4202 26.584 50.8162 27.5593 50.8162 28.938V31.534H43.9082V32.502C43.9082 33.118 44.1282 33.558 44.5682 33.822C45.0082 34.086 45.8002 34.218 46.9442 34.218C48.0002 34.218 49.1882 34.064 50.5082 33.756V35.802C49.2029 36.0807 47.8096 36.22 46.3282 36.22ZM47.7582 29.708V28.168C47.7582 27.816 47.6116 27.552 47.3182 27.376C47.0396 27.2 46.5629 27.112 45.8882 27.112C45.1109 27.112 44.5902 27.2 44.3262 27.376C44.0476 27.5667 43.9082 27.8307 43.9082 28.168V29.708H47.7582Z"/>
</mask>
<path d="M1.54 0.721999H7.326C8.69 0.721999 9.73867 0.824666 10.472 1.03C11.22 1.22067 11.748 1.536 12.056 1.976C12.364 2.40133 12.518 3.00267 12.518 3.78V5.54C12.518 5.936 12.3567 6.31 12.034 6.662C11.726 7.014 11.3593 7.256 10.934 7.388V7.498C11.4913 7.55667 11.9973 7.79867 12.452 8.224C12.9213 8.63467 13.156 9.09667 13.156 9.61V11.81C13.156 12.9687 12.694 13.79 11.77 14.274C10.846 14.758 9.416 15 7.48 15H1.54V0.721999ZM7.326 6.53C7.86867 6.53 8.272 6.486 8.536 6.398C8.8 6.31 8.976 6.17067 9.064 5.98C9.16667 5.77467 9.218 5.48133 9.218 5.1V4.396C9.218 4.05867 9.174 3.80933 9.086 3.648C8.998 3.472 8.81467 3.34733 8.536 3.274C8.272 3.20067 7.84667 3.164 7.26 3.164H4.972V6.53H7.326ZM7.414 12.558C8.25 12.558 8.844 12.4627 9.196 12.272C9.548 12.0813 9.724 11.7733 9.724 11.348V10.204C9.724 9.676 9.58467 9.302 9.306 9.082C9.042 8.862 8.56533 8.752 7.876 8.752H4.972V12.558H7.414ZM20.7188 15.22C16.9495 15.22 15.0648 14.0687 15.0648 11.766V7.938C15.0648 6.60333 15.4902 5.63533 16.3408 5.034C17.2062 4.43267 18.5335 4.132 20.3228 4.132C22.0095 4.132 23.2415 4.42533 24.0188 5.012C24.8108 5.584 25.2068 6.55933 25.2068 7.938V10.534H18.2988V11.502C18.2988 12.118 18.5188 12.558 18.9588 12.822C19.3988 13.086 20.1908 13.218 21.3348 13.218C22.3908 13.218 23.5788 13.064 24.8988 12.756V14.802C23.5935 15.0807 22.2002 15.22 20.7188 15.22ZM22.1488 8.708V7.168C22.1488 6.816 22.0022 6.552 21.7088 6.376C21.4302 6.2 20.9535 6.112 20.2788 6.112C19.5015 6.112 18.9808 6.2 18.7168 6.376C18.4382 6.56667 18.2988 6.83067 18.2988 7.168V8.708H22.1488ZM30.6759 15.22C29.6786 15.22 28.9306 15.132 28.4319 14.956C27.9479 14.7653 27.6032 14.4353 27.3979 13.966C27.2072 13.482 27.1119 12.7633 27.1119 11.81C27.1119 10.9593 27.2146 10.292 27.4199 9.808C27.6399 9.324 27.9846 8.97933 28.4539 8.774C28.9379 8.554 29.5979 8.444 30.4339 8.444H34.0419V7.718C34.0419 7.26333 33.9759 6.926 33.8439 6.706C33.7266 6.486 33.4992 6.332 33.1619 6.244C32.8392 6.156 32.3479 6.112 31.6879 6.112C30.7786 6.112 29.5319 6.2 27.9479 6.376V4.352C29.1066 4.20533 30.4632 4.132 32.0179 4.132C33.3819 4.132 34.4306 4.23467 35.1639 4.44C35.9119 4.64533 36.4472 4.99733 36.7699 5.496C37.0926 5.99467 37.2539 6.72067 37.2539 7.674V15H34.1079V14.032C33.8586 14.4573 33.5212 14.758 33.0959 14.934C32.6706 15.1247 31.8639 15.22 30.6759 15.22ZM31.9299 13.218C32.5752 13.218 33.0372 13.196 33.3159 13.152C33.5212 13.1227 33.6606 13.0787 33.7339 13.02C33.8219 12.9613 33.8952 12.866 33.9539 12.734C34.0126 12.6313 34.0419 12.4773 34.0419 12.272V10.204H31.8419C31.3432 10.204 30.9912 10.2407 30.7859 10.314C30.5806 10.3727 30.4412 10.5047 30.3679 10.71C30.2946 10.9007 30.2579 11.2453 30.2579 11.744C30.2579 12.228 30.2946 12.5653 30.3679 12.756C30.4412 12.9467 30.5806 13.0713 30.7859 13.13C31.0059 13.1887 31.3872 13.218 31.9299 13.218ZM43.7759 15.22C42.4119 15.22 41.4512 14.978 40.8939 14.494C40.3512 13.9953 40.0799 13.218 40.0799 12.162V4.352H43.2919V11.722C43.2919 12.1327 43.3285 12.4407 43.4019 12.646C43.4899 12.8513 43.6512 12.998 43.8859 13.086C44.1352 13.174 44.5092 13.218 45.0079 13.218C45.6385 13.218 46.1005 13.1813 46.3939 13.108C46.6872 13.02 46.8852 12.8733 46.9879 12.668C47.0905 12.4627 47.1419 12.1473 47.1419 11.722V4.352H50.3539V15H47.1859V13.702C46.9512 14.714 45.8145 15.22 43.7759 15.22ZM58.4879 15.22C57.9452 15.22 57.4905 15.198 57.1239 15.154C56.7572 15.11 56.3905 15.022 56.0239 14.89C55.6132 14.758 55.2759 14.5747 55.0119 14.34C54.7625 14.1053 54.5572 13.7827 54.3959 13.372C54.2199 12.9467 54.1319 12.4553 54.1319 11.898V6.332H51.9759V4.352H54.1319V1.272H57.3439V4.352H60.2699V6.332H57.3439V11.348C57.3439 11.8613 57.3879 12.25 57.4759 12.514C57.5639 12.7633 57.7325 12.9467 57.9819 13.064C58.2312 13.1667 58.6125 13.218 59.1259 13.218C59.3312 13.218 59.7125 13.1813 60.2699 13.108V15.11C59.5805 15.1833 58.9865 15.22 58.4879 15.22ZM65.1368 14.912L60.8908 4.352H64.3888L66.7868 11.876L68.9648 4.352H72.2868L66.4568 19.576H63.2008L65.1368 14.912ZM0.88 33.91L8.316 24.164H1.1V21.722H12.54V23.79L5.104 33.536H12.672V36H0.88V33.91ZM19.9827 36.22C19.3227 36.22 18.78 36.198 18.3547 36.154C17.9294 36.11 17.4747 36.022 16.9907 35.89C16.4627 35.7433 16.0374 35.538 15.7147 35.274C15.392 34.9953 15.1207 34.6067 14.9007 34.108C14.6807 33.624 14.5707 33.0373 14.5707 32.348V29.202C14.5707 28.498 14.6807 27.882 14.9007 27.354C15.1207 26.826 15.4067 26.4153 15.7587 26.122C16.0667 25.8727 16.47 25.6673 16.9687 25.506C17.482 25.33 17.9807 25.22 18.4647 25.176C19.022 25.1467 19.528 25.132 19.9827 25.132C20.6574 25.132 21.1927 25.154 21.5887 25.198C21.9994 25.2273 22.4467 25.3153 22.9307 25.462C23.4587 25.6233 23.884 25.8433 24.2067 26.122C24.544 26.4007 24.83 26.7967 25.0647 27.31C25.2847 27.838 25.3947 28.4687 25.3947 29.202V32.348C25.3947 33.008 25.2847 33.5873 25.0647 34.086C24.8594 34.5847 24.588 34.9733 24.2507 35.252C23.9574 35.5013 23.554 35.7067 23.0407 35.868C22.542 36.0147 22.0507 36.11 21.5667 36.154C21.1267 36.198 20.5987 36.22 19.9827 36.22ZM19.9827 34.218C20.584 34.218 21.0387 34.174 21.3467 34.086C21.6547 33.9833 21.8674 33.8293 21.9847 33.624C22.1167 33.4187 22.1827 33.118 22.1827 32.722V28.696C22.1827 28.1093 22.0287 27.6987 21.7207 27.464C21.4127 27.2293 20.8334 27.112 19.9827 27.112C19.132 27.112 18.5527 27.2293 18.2447 27.464C17.9367 27.6987 17.7827 28.1093 17.7827 28.696V32.722C17.7827 33.118 17.8414 33.4187 17.9587 33.624C18.0907 33.8293 18.3107 33.9833 18.6187 34.086C18.9267 34.174 19.3814 34.218 19.9827 34.218ZM27.8982 25.352H31.0662V26.65C31.3156 25.638 32.4522 25.132 34.4762 25.132C35.8402 25.132 36.7936 25.3813 37.3362 25.88C37.8936 26.364 38.1722 27.134 38.1722 28.19V36H34.9602V28.608C34.9602 28.1973 34.9162 27.8893 34.8282 27.684C34.7549 27.4787 34.5936 27.332 34.3442 27.244C34.1096 27.156 33.7429 27.112 33.2442 27.112C32.6136 27.112 32.1516 27.156 31.8582 27.244C31.5649 27.3173 31.3669 27.4567 31.2642 27.662C31.1616 27.8673 31.1102 28.1827 31.1102 28.608V36H27.8982V25.352ZM46.3282 36.22C42.5589 36.22 40.6742 35.0687 40.6742 32.766V28.938C40.6742 27.6033 41.0996 26.6353 41.9502 26.034C42.8156 25.4327 44.1429 25.132 45.9322 25.132C47.6189 25.132 48.8509 25.4253 49.6282 26.012C50.4202 26.584 50.8162 27.5593 50.8162 28.938V31.534H43.9082V32.502C43.9082 33.118 44.1282 33.558 44.5682 33.822C45.0082 34.086 45.8002 34.218 46.9442 34.218C48.0002 34.218 49.1882 34.064 50.5082 33.756V35.802C49.2029 36.0807 47.8096 36.22 46.3282 36.22ZM47.7582 29.708V28.168C47.7582 27.816 47.6116 27.552 47.3182 27.376C47.0396 27.2 46.5629 27.112 45.8882 27.112C45.1109 27.112 44.5902 27.2 44.3262 27.376C44.0476 27.5667 43.9082 27.8307 43.9082 28.168V29.708H47.7582Z" fill="#2B7FFF"/>
<path d="M1.54 0.721999V-0.278001H0.54V0.721999H1.54ZM10.472 1.03L10.2024 1.99296L10.2136 1.99612L10.225 1.99901L10.472 1.03ZM12.056 1.976L11.2368 2.54946L11.2414 2.55602L11.2461 2.56251L12.056 1.976ZM12.034 6.662L11.2968 5.98628L11.289 5.9948L11.2814 6.00349L12.034 6.662ZM10.934 7.388L10.6376 6.43294L9.934 6.65129V7.388H10.934ZM10.934 7.498H9.934V8.39826L10.8293 8.4925L10.934 7.498ZM12.452 8.224L11.7688 8.95427L11.781 8.96563L11.7935 8.97658L12.452 8.224ZM11.77 14.274L11.306 13.3882L11.306 13.3882L11.77 14.274ZM1.54 15H0.54V16H1.54V15ZM8.536 6.398L8.21977 5.44932L8.21977 5.44932L8.536 6.398ZM9.064 5.98L8.16957 5.53279L8.16259 5.54676L8.15604 5.56094L9.064 5.98ZM9.086 3.648L8.19157 4.09521L8.19956 4.11118L8.2081 4.12685L9.086 3.648ZM8.536 3.274L8.26833 4.23761L8.2815 4.24107L8.536 3.274ZM4.972 3.164V2.164H3.972V3.164H4.972ZM4.972 6.53H3.972V7.53H4.972V6.53ZM9.196 12.272L8.71972 11.3927L8.71972 11.3927L9.196 12.272ZM9.306 9.082L8.66582 9.85022L8.67598 9.85869L8.68636 9.86688L9.306 9.082ZM4.972 8.752V7.752H3.972V8.752H4.972ZM4.972 12.558H3.972V13.558H4.972V12.558ZM1.54 1.722H7.326V-0.278001H1.54V1.722ZM7.326 1.722C8.65863 1.722 9.60008 1.82432 10.2024 1.99296L10.7416 0.0670349C9.87725 -0.174991 8.72137 -0.278001 7.326 -0.278001V1.722ZM10.225 1.99901C10.8408 2.15598 11.1153 2.37598 11.2368 2.54946L12.8752 1.40254C12.3807 0.69602 11.5992 0.285356 10.719 0.0609844L10.225 1.99901ZM11.2461 2.56251C11.384 2.75302 11.518 3.11705 11.518 3.78H13.518C13.518 2.88828 13.344 2.04964 12.8659 1.38949L11.2461 2.56251ZM11.518 3.78V5.54H13.518V3.78H11.518ZM11.518 5.54C11.518 5.63633 11.4872 5.77867 11.2968 5.98628L12.7712 7.33772C13.2262 6.84133 13.518 6.23567 13.518 5.54H11.518ZM11.2814 6.00349C11.0888 6.22369 10.8773 6.35854 10.6376 6.43294L11.2304 8.34306C11.8413 8.15346 12.3633 7.80431 12.7866 7.32051L11.2814 6.00349ZM9.934 7.388V7.498H11.934V7.388H9.934ZM10.8293 8.4925C11.1462 8.52586 11.4545 8.66024 11.7688 8.95427L13.1352 7.49373C12.5401 6.9371 11.8365 6.58747 11.0387 6.50349L10.8293 8.4925ZM11.7935 8.97658C12.0966 9.24181 12.156 9.4463 12.156 9.61H14.156C14.156 8.74703 13.746 8.02752 13.1105 7.47142L11.7935 8.97658ZM12.156 9.61V11.81H14.156V9.61H12.156ZM12.156 11.81C12.156 12.2567 12.0674 12.5745 11.9379 12.8047C11.8117 13.0292 11.6157 13.2259 11.306 13.3882L12.234 15.1598C12.8483 14.8381 13.3453 14.3822 13.6811 13.7853C14.0136 13.1942 14.156 12.522 14.156 11.81H12.156ZM11.306 13.3882C10.6012 13.7573 9.37048 14 7.48 14V16C9.46152 16 11.0908 15.7587 12.234 15.1598L11.306 13.3882ZM7.48 14H1.54V16H7.48V14ZM2.54 15V0.721999H0.54V15H2.54ZM7.326 7.53C7.89431 7.53 8.43014 7.48738 8.85223 7.34668L8.21977 5.44932C8.11386 5.48462 7.84303 5.53 7.326 5.53V7.53ZM8.85223 7.34668C9.28907 7.20107 9.73408 6.91447 9.97196 6.39906L8.15604 5.56094C8.16815 5.53471 8.18343 5.51019 8.20063 5.48868C8.21767 5.46739 8.23373 5.45261 8.2453 5.44345C8.26734 5.42601 8.26692 5.4336 8.21977 5.44932L8.85223 7.34668ZM9.95843 6.42721C10.1619 6.02019 10.218 5.54642 10.218 5.1H8.218C8.218 5.24806 8.20786 5.35709 8.19447 5.43362C8.18084 5.51149 8.16688 5.53817 8.16957 5.53279L9.95843 6.42721ZM10.218 5.1V4.396H8.218V5.1H10.218ZM10.218 4.396C10.218 4.00962 10.1741 3.55457 9.9639 3.16915L8.2081 4.12685C8.18468 4.0839 8.19047 4.07458 8.20022 4.12979C8.2094 4.1818 8.218 4.26771 8.218 4.396H10.218ZM9.98043 3.20078C9.71343 2.66679 9.21576 2.41884 8.7905 2.30693L8.2815 4.24107C8.34217 4.25704 8.34581 4.26685 8.32019 4.24943C8.28874 4.22804 8.23329 4.17865 8.19157 4.09521L9.98043 3.20078ZM8.80364 2.31048C8.4 2.19836 7.85848 2.164 7.26 2.164V4.164C7.83485 4.164 8.144 4.20297 8.26836 4.23752L8.80364 2.31048ZM7.26 2.164H4.972V4.164H7.26V2.164ZM3.972 3.164V6.53H5.972V3.164H3.972ZM4.972 7.53H7.326V5.53H4.972V7.53ZM7.414 13.558C8.27245 13.558 9.08536 13.4692 9.67228 13.1513L8.71972 11.3927C8.60264 11.4561 8.22755 11.558 7.414 11.558V13.558ZM9.67228 13.1513C9.99047 12.9789 10.2684 12.73 10.4602 12.3941C10.6503 12.0616 10.724 11.7 10.724 11.348H8.724C8.724 11.3856 8.72011 11.4054 8.71861 11.4116C8.71732 11.417 8.71791 11.4121 8.72376 11.4019C8.72976 11.3914 8.73651 11.3836 8.74038 11.38C8.74366 11.3769 8.73901 11.3823 8.71972 11.3927L9.67228 13.1513ZM10.724 11.348V10.204H8.724V11.348H10.724ZM10.724 10.204C10.724 9.52364 10.5437 8.78503 9.92564 8.29712L8.68636 9.86688C8.66472 9.8498 8.66854 9.83935 8.68242 9.87661C8.69945 9.92233 8.724 10.0229 8.724 10.204H10.724ZM9.94618 8.31378C9.39329 7.85303 8.60028 7.752 7.876 7.752V9.752C8.17314 9.752 8.38419 9.77625 8.52564 9.80889C8.67172 9.8426 8.69418 9.87386 8.66582 9.85022L9.94618 8.31378ZM7.876 7.752H4.972V9.752H7.876V7.752ZM3.972 8.752V12.558H5.972V8.752H3.972ZM4.972 13.558H7.414V11.558H4.972V13.558ZM16.3408 5.034L15.7702 4.21278L15.7636 4.21742L16.3408 5.034ZM24.0188 5.012L23.4164 5.81019L23.4248 5.81652L23.4334 5.82268L24.0188 5.012ZM25.2068 10.534V11.534H26.2068V10.534H25.2068ZM18.2988 10.534V9.534H17.2988V10.534H18.2988ZM18.9588 12.822L19.4733 11.9645L19.4733 11.9645L18.9588 12.822ZM24.8988 12.756H25.8988V11.4958L24.6716 11.7822L24.8988 12.756ZM24.8988 14.802L25.1076 15.78L25.8988 15.6111V14.802H24.8988ZM22.1488 8.708V9.708H23.1488V8.708H22.1488ZM21.7088 6.376L21.1749 7.22149L21.1845 7.2276L21.1943 7.23349L21.7088 6.376ZM18.7168 6.376L18.1621 5.54389L18.1522 5.55069L18.7168 6.376ZM18.2988 8.708H17.2988V9.708H18.2988V8.708ZM20.7188 14.22C18.9035 14.22 17.7097 13.9369 16.9997 13.5031C16.3698 13.1183 16.0648 12.587 16.0648 11.766H14.0648C14.0648 13.2477 14.7023 14.4433 15.957 15.2099C17.1316 15.9274 18.7649 16.22 20.7188 16.22V14.22ZM16.0648 11.766V7.938H14.0648V11.766H16.0648ZM16.0648 7.938C16.0648 6.82651 16.4058 6.21269 16.9181 5.85058L15.7636 4.21742C14.5745 5.05797 14.0648 6.38016 14.0648 7.938H16.0648ZM16.9115 5.85519C17.5286 5.42638 18.61 5.132 20.3228 5.132V3.132C18.457 3.132 16.8838 3.43895 15.7702 4.21281L16.9115 5.85519ZM20.3228 5.132C21.9346 5.132 22.8996 5.42009 23.4164 5.81019L24.6213 4.21381C23.5835 3.43058 22.0844 3.132 20.3228 3.132V5.132ZM23.4334 5.82268C23.8686 6.137 24.2068 6.73928 24.2068 7.938H26.2068C26.2068 6.37938 25.7531 5.031 24.6043 4.20132L23.4334 5.82268ZM24.2068 7.938V10.534H26.2068V7.938H24.2068ZM25.2068 9.534H18.2988V11.534H25.2068V9.534ZM17.2988 10.534V11.502H19.2988V10.534H17.2988ZM17.2988 11.502C17.2988 12.3867 17.6385 13.196 18.4443 13.6795L19.4733 11.9645C19.3992 11.92 19.2988 11.8493 19.2988 11.502H17.2988ZM18.4443 13.6795C19.1406 14.0972 20.1822 14.218 21.3348 14.218V12.218C20.1995 12.218 19.6571 12.0748 19.4733 11.9645L18.4443 13.6795ZM21.3348 14.218C22.4853 14.218 23.7514 14.0506 25.1261 13.7298L24.6716 11.7822C23.4063 12.0774 22.2964 12.218 21.3348 12.218V14.218ZM23.8988 12.756V14.802H25.8988V12.756H23.8988ZM24.6901 13.824C23.4604 14.0866 22.1376 14.22 20.7188 14.22V16.22C22.2628 16.22 23.7266 16.0748 25.1076 15.78L24.6901 13.824ZM23.1488 8.708V7.168H21.1488V8.708H23.1488ZM23.1488 7.168C23.1488 6.47722 22.8284 5.88156 22.2233 5.51851L21.1943 7.23349C21.2045 7.23955 21.2025 7.23983 21.1942 7.23161C21.1855 7.2229 21.1745 7.2093 21.1647 7.19164C21.1549 7.17409 21.1503 7.1596 21.1485 7.15212C21.1469 7.14534 21.1488 7.14944 21.1488 7.168H23.1488ZM22.2428 5.53051C21.7081 5.19281 20.9817 5.112 20.2788 5.112V7.112C20.577 7.112 20.8005 7.13178 20.9608 7.16138C21.1276 7.19218 21.1813 7.22554 21.1749 7.22149L22.2428 5.53051ZM20.2788 5.112C19.8578 5.112 19.4732 5.13545 19.1387 5.19198C18.82 5.24585 18.464 5.34272 18.1621 5.54395L19.2715 7.20805C19.2337 7.23328 19.2701 7.19814 19.472 7.16402C19.6581 7.13255 19.9225 7.112 20.2788 7.112V5.112ZM18.1522 5.55069C17.6014 5.92754 17.2988 6.5002 17.2988 7.168H19.2988C19.2988 7.15268 19.3004 7.14913 19.2992 7.15448C19.2978 7.16033 19.2944 7.17107 19.2877 7.18376C19.281 7.19645 19.2741 7.20523 19.2701 7.20955C19.2665 7.21348 19.2687 7.21008 19.2815 7.20131L18.1522 5.55069ZM17.2988 7.168V8.708H19.2988V7.168H17.2988ZM18.2988 9.708H22.1488V7.708H18.2988V9.708ZM28.4319 14.956L28.0654 15.8864L28.0821 15.893L28.0991 15.899L28.4319 14.956ZM27.3979 13.966L26.4675 14.3325L26.4743 14.3498L26.4817 14.3668L27.3979 13.966ZM27.4199 9.808L26.5095 9.3942L26.5043 9.40576L26.4993 9.41745L27.4199 9.808ZM28.4539 8.774L28.8547 9.69016L28.8612 9.68731L28.8677 9.68437L28.4539 8.774ZM34.0419 8.444V9.444H35.0419V8.444H34.0419ZM33.8439 6.706L32.9616 7.17659L32.9734 7.19886L32.9864 7.22049L33.8439 6.706ZM33.1619 6.244L32.8988 7.20882L32.9095 7.21162L33.1619 6.244ZM27.9479 6.376H26.9479V7.49326L28.0583 7.36988L27.9479 6.376ZM27.9479 4.352L27.8223 3.35992L26.9479 3.4706V4.352H27.9479ZM35.1639 4.44L34.8943 5.40298L34.8992 5.40433L35.1639 4.44ZM36.7699 5.496L35.9303 6.03925L35.9303 6.03925L36.7699 5.496ZM37.2539 15V16H38.2539V15H37.2539ZM34.1079 15H33.1079V16H34.1079V15ZM34.1079 14.032H35.1079V10.3487L33.2452 13.5263L34.1079 14.032ZM33.0959 14.934L32.7136 14.01L32.7001 14.0155L32.6869 14.0215L33.0959 14.934ZM33.3159 13.152L33.1745 12.1621L33.1672 12.1631L33.1599 12.1642L33.3159 13.152ZM33.7339 13.02L33.1792 12.1879L33.1431 12.212L33.1092 12.2391L33.7339 13.02ZM33.9539 12.734L33.0857 12.2379L33.0606 12.2817L33.0401 12.3279L33.9539 12.734ZM34.0419 10.204H35.0419V9.204H34.0419V10.204ZM30.7859 10.314L31.0606 11.2755L31.0918 11.2666L31.1222 11.2557L30.7859 10.314ZM30.3679 10.71L31.3013 11.069L31.3056 11.0577L31.3096 11.0463L30.3679 10.71ZM30.3679 12.756L31.3013 12.397L31.3013 12.397L30.3679 12.756ZM30.7859 13.13L30.5112 14.0915L30.5197 14.094L30.5282 14.0962L30.7859 13.13ZM30.6759 14.22C29.71 14.22 29.0998 14.1313 28.7647 14.013L28.0991 15.899C28.7614 16.1327 29.6471 16.22 30.6759 16.22V14.22ZM28.7984 14.0256C28.5562 13.9302 28.4116 13.7881 28.3141 13.5652L26.4817 14.3668C26.7949 15.0826 27.3396 15.6005 28.0654 15.8864L28.7984 14.0256ZM28.3283 13.5995C28.2073 13.2922 28.1119 12.7246 28.1119 11.81H26.1119C26.1119 12.8021 26.2072 13.6718 26.4675 14.3325L28.3283 13.5995ZM28.1119 11.81C28.1119 11.0206 28.21 10.506 28.3405 10.1985L26.4993 9.41745C26.2191 10.078 26.1119 10.8981 26.1119 11.81H28.1119ZM28.3303 10.2218C28.4524 9.95304 28.6206 9.79259 28.8547 9.69016L28.0531 7.85784C27.3485 8.16608 26.8274 8.69496 26.5095 9.3942L28.3303 10.2218ZM28.8677 9.68437C29.1686 9.54759 29.6677 9.444 30.4339 9.444V7.444C29.5281 7.444 28.7072 7.5604 28.0401 7.86363L28.8677 9.68437ZM30.4339 9.444H34.0419V7.444H30.4339V9.444ZM35.0419 8.444V7.718H33.0419V8.444H35.0419ZM35.0419 7.718C35.0419 7.20331 34.9738 6.64549 34.7014 6.1915L32.9864 7.22049C32.9763 7.2036 32.9932 7.22494 33.011 7.31601C33.0284 7.40495 33.0419 7.53583 33.0419 7.718H35.0419ZM34.7263 6.23541C34.432 5.68362 33.9112 5.406 33.4143 5.27638L32.9095 7.21162C32.9518 7.22266 32.9813 7.23335 33.0004 7.24152C33.0193 7.24964 33.0261 7.25447 33.0246 7.25342C33.0227 7.25214 33.013 7.24524 32.9999 7.23106C32.9866 7.21656 32.973 7.19808 32.9616 7.17659L34.7263 6.23541ZM33.425 5.27924C32.9691 5.15488 32.3682 5.112 31.6879 5.112V7.112C32.3276 7.112 32.7094 7.15712 32.8988 7.20876L33.425 5.27924ZM31.6879 5.112C30.7242 5.112 29.4353 5.20458 27.8375 5.38212L28.0583 7.36988C29.6285 7.19542 30.8329 7.112 31.6879 7.112V5.112ZM28.9479 6.376V4.352H26.9479V6.376H28.9479ZM28.0735 5.34408C29.1795 5.20408 30.4924 5.132 32.0179 5.132V3.132C30.4341 3.132 29.0337 3.20658 27.8223 3.35992L28.0735 5.34408ZM32.0179 5.132C33.3505 5.132 34.292 5.23432 34.8943 5.40296L35.4335 3.47704C34.5692 3.23501 33.4133 3.132 32.0179 3.132V5.132ZM34.8992 5.40433C35.4845 5.565 35.7777 5.80329 35.9303 6.03925L37.6095 4.95275C37.1168 4.19138 36.3393 3.72567 35.4286 3.47567L34.8992 5.40433ZM35.9303 6.03925C36.1026 6.30547 36.2539 6.80726 36.2539 7.674H38.2539C38.2539 6.63408 38.0825 5.68386 37.6095 4.95275L35.9303 6.03925ZM36.2539 7.674V15H38.2539V7.674H36.2539ZM37.2539 14H34.1079V16H37.2539V14ZM35.1079 15V14.032H33.1079V15H35.1079ZM33.2452 13.5263C33.0978 13.7778 32.9227 13.9234 32.7136 14.01L33.4783 15.858C34.1197 15.5926 34.6194 15.1369 34.9706 14.5377L33.2452 13.5263ZM32.6869 14.0215C32.6108 14.0556 32.4201 14.1122 32.0545 14.1554C31.7035 14.1969 31.2468 14.22 30.6759 14.22V16.22C31.293 16.22 31.8337 16.1954 32.2893 16.1416C32.7304 16.0895 33.1556 16.0031 33.505 15.8465L32.6869 14.0215ZM31.9299 14.218C32.5783 14.218 33.109 14.1971 33.4719 14.1398L33.1599 12.1642C32.9655 12.1949 32.5721 12.218 31.9299 12.218V14.218ZM33.4573 14.1419C33.6733 14.1111 34.0561 14.0429 34.3586 13.8009L33.1092 12.2391C33.1622 12.1967 33.2072 12.1726 33.2318 12.1607C33.2571 12.1485 33.2726 12.1436 33.2733 12.1434C33.2745 12.143 33.2673 12.1453 33.2494 12.1491C33.2319 12.1529 33.2073 12.1574 33.1745 12.1621L33.4573 14.1419ZM34.2886 13.8521C34.582 13.6565 34.7593 13.384 34.8677 13.1401L33.0401 12.3279C33.0312 12.348 33.0618 12.2662 33.1792 12.1879L34.2886 13.8521ZM34.8222 13.2301C35.0094 12.9025 35.0419 12.5398 35.0419 12.272H33.0419C33.0419 12.2998 33.0409 12.3206 33.0397 12.335C33.0385 12.3496 33.0373 12.3556 33.0376 12.3544C33.0378 12.3533 33.0399 12.342 33.0465 12.3231C33.053 12.3041 33.0649 12.2742 33.0857 12.2379L34.8222 13.2301ZM35.0419 12.272V10.204H33.0419V12.272H35.0419ZM34.0419 9.204H31.8419V11.204H34.0419V9.204ZM31.8419 9.204C31.3381 9.204 30.8322 9.2356 30.4496 9.37226L31.1222 11.2557C31.1179 11.2573 31.1683 11.2406 31.3075 11.2261C31.4384 11.2125 31.6144 11.204 31.8419 11.204V9.204ZM30.5112 9.35248C29.988 9.50195 29.6053 9.87213 29.4262 10.3737L31.3096 11.0463C31.3007 11.0714 31.2743 11.127 31.2152 11.183C31.1554 11.2395 31.0949 11.2657 31.0606 11.2755L30.5112 9.35248ZM29.4346 10.351C29.2873 10.7339 29.2579 11.2497 29.2579 11.744H31.2579C31.2579 11.5161 31.2664 11.343 31.2798 11.2173C31.2944 11.0804 31.3101 11.0459 31.3013 11.069L29.4346 10.351ZM29.2579 11.744C29.2579 12.228 29.288 12.7338 29.4346 13.115L31.3013 12.397C31.3093 12.4179 31.2938 12.3833 31.2796 12.2519C31.2664 12.1307 31.2579 11.9637 31.2579 11.744H29.2579ZM29.4346 13.115C29.6265 13.614 30.0199 13.9512 30.5112 14.0915L31.0606 12.1685C31.0826 12.1748 31.1362 12.1953 31.1942 12.2473C31.2534 12.3003 31.2863 12.3583 31.3013 12.397L29.4346 13.115ZM30.5282 14.0962C30.8876 14.1921 31.3869 14.218 31.9299 14.218V12.218C31.3876 12.218 31.1242 12.1853 31.0436 12.1638L30.5282 14.0962ZM40.8939 14.494L40.2172 15.2303L40.2276 15.2398L40.2382 15.249L40.8939 14.494ZM40.0799 4.352V3.352H39.0799V4.352H40.0799ZM43.2919 4.352H44.2919V3.352H43.2919V4.352ZM43.4019 12.646L42.4601 12.9823L42.4705 13.0115L42.4827 13.0399L43.4019 12.646ZM43.8859 13.086L43.5348 14.0223L43.5439 14.0257L43.5531 14.029L43.8859 13.086ZM46.3939 13.108L46.6364 14.0781L46.659 14.0725L46.6812 14.0658L46.3939 13.108ZM47.1419 4.352V3.352H46.1419V4.352H47.1419ZM50.3539 4.352H51.3539V3.352H50.3539V4.352ZM50.3539 15V16H51.3539V15H50.3539ZM47.1859 15H46.1859V16H47.1859V15ZM47.1859 13.702H48.1859L46.2117 13.4761L47.1859 13.702ZM43.7759 14.22C42.4721 14.22 41.8238 13.9771 41.5496 13.739L40.2382 15.249C41.0786 15.9789 42.3516 16.22 43.7759 16.22V14.22ZM41.5705 13.7577C41.31 13.5183 41.0799 13.0616 41.0799 12.162H39.0799C39.0799 13.3744 39.3924 14.4723 40.2172 15.2303L41.5705 13.7577ZM41.0799 12.162V4.352H39.0799V12.162H41.0799ZM40.0799 5.352H43.2919V3.352H40.0799V5.352ZM42.2919 4.352V11.722H44.2919V4.352H42.2919ZM42.2919 11.722C42.2919 12.1646 42.3278 12.6119 42.4601 12.9823L44.3436 12.3097C44.3293 12.2695 44.2919 12.1007 44.2919 11.722H42.2919ZM42.4827 13.0399C42.6918 13.5277 43.0789 13.8514 43.5348 14.0223L44.237 12.1497C44.2208 12.1436 44.2355 12.1464 44.2615 12.1701C44.2895 12.1955 44.31 12.2264 44.321 12.2521L42.4827 13.0399ZM43.5531 14.029C43.966 14.1747 44.4778 14.218 45.0079 14.218V12.218C44.5406 12.218 44.3044 12.1733 44.2187 12.143L43.5531 14.029ZM45.0079 14.218C45.6519 14.218 46.2173 14.1829 46.6364 14.0781L46.1513 12.1379C45.9838 12.1797 45.6251 12.218 45.0079 12.218V14.218ZM46.6812 14.0658C47.1467 13.9262 47.6191 13.6416 47.8823 13.1152L46.0934 12.2208C46.1044 12.1989 46.1179 12.1787 46.1326 12.1615C46.1471 12.1445 46.1598 12.1338 46.1671 12.1284C46.1806 12.1185 46.1683 12.1316 46.1065 12.1502L46.6812 14.0658ZM47.8823 13.1152C48.0911 12.6976 48.1419 12.1917 48.1419 11.722H46.1419C46.1419 11.8973 46.1311 12.0264 46.1164 12.1168C46.1011 12.2108 46.0858 12.236 46.0934 12.2208L47.8823 13.1152ZM48.1419 11.722V4.352H46.1419V11.722H48.1419ZM47.1419 5.352H50.3539V3.352H47.1419V5.352ZM49.3539 4.352V15H51.3539V4.352H49.3539ZM50.3539 14H47.1859V16H50.3539V14ZM48.1859 15V13.702H46.1859V15H48.1859ZM46.2117 13.4761C46.1796 13.6146 46.0961 13.7732 45.7507 13.9269C45.3666 14.0979 44.7336 14.22 43.7759 14.22V16.22C44.8568 16.22 45.8115 16.0891 46.5641 15.7541C47.3553 15.4018 47.9575 14.8014 48.16 13.9279L46.2117 13.4761ZM57.1239 15.154L57.243 14.1611L57.243 14.1611L57.1239 15.154ZM56.0239 14.89L56.3626 13.9491L56.3463 13.9433L56.3299 13.938L56.0239 14.89ZM55.0119 14.34L54.3265 15.0682L54.3369 15.078L54.3475 15.0874L55.0119 14.34ZM54.3959 13.372L55.3266 13.0063L55.3233 12.998L55.3199 12.9896L54.3959 13.372ZM54.1319 6.332H55.1319V5.332H54.1319V6.332ZM51.9759 6.332H50.9759V7.332H51.9759V6.332ZM51.9759 4.352V3.352H50.9759V4.352H51.9759ZM54.1319 4.352V5.352H55.1319V4.352H54.1319ZM54.1319 1.272V0.272H53.1319V1.272H54.1319ZM57.3439 1.272H58.3439V0.272H57.3439V1.272ZM57.3439 4.352H56.3439V5.352H57.3439V4.352ZM60.2699 4.352H61.2699V3.352H60.2699V4.352ZM60.2699 6.332V7.332H61.2699V6.332H60.2699ZM57.3439 6.332V5.332H56.3439V6.332H57.3439ZM57.4759 12.514L56.5272 12.8302L56.53 12.8385L56.5329 12.8468L57.4759 12.514ZM57.9819 13.064L57.5561 13.9688L57.5783 13.9793L57.6011 13.9887L57.9819 13.064ZM60.2699 13.108H61.2699V11.9678L60.1394 12.1165L60.2699 13.108ZM60.2699 15.11L60.3756 16.1044L61.2699 16.0093V15.11H60.2699ZM58.4879 14.22C57.9684 14.22 57.5565 14.1987 57.243 14.1611L57.0047 16.1469C57.4246 16.1973 57.922 16.22 58.4879 16.22V14.22ZM57.243 14.1611C56.9553 14.1266 56.6622 14.057 56.3626 13.9491L55.6851 15.8309C56.1189 15.987 56.5591 16.0934 57.0047 16.1469L57.243 14.1611ZM56.3299 13.938C56.023 13.8393 55.816 13.7168 55.6762 13.5926L54.3475 15.0874C54.7357 15.4325 55.2034 15.6767 55.7179 15.842L56.3299 13.938ZM55.6972 13.6118C55.5818 13.5032 55.449 13.3178 55.3266 13.0063L53.4651 13.7377C53.6654 14.2476 53.9432 14.7075 54.3265 15.0682L55.6972 13.6118ZM55.3199 12.9896C55.2034 12.7082 55.1319 12.3511 55.1319 11.898H53.1319C53.1319 12.5596 53.2363 13.1851 53.4718 13.7544L55.3199 12.9896ZM55.1319 11.898V6.332H53.1319V11.898H55.1319ZM54.1319 5.332H51.9759V7.332H54.1319V5.332ZM52.9759 6.332V4.352H50.9759V6.332H52.9759ZM51.9759 5.352H54.1319V3.352H51.9759V5.352ZM55.1319 4.352V1.272H53.1319V4.352H55.1319ZM54.1319 2.272H57.3439V0.272H54.1319V2.272ZM56.3439 1.272V4.352H58.3439V1.272H56.3439ZM57.3439 5.352H60.2699V3.352H57.3439V5.352ZM59.2699 4.352V6.332H61.2699V4.352H59.2699ZM60.2699 5.332H57.3439V7.332H60.2699V5.332ZM56.3439 6.332V11.348H58.3439V6.332H56.3439ZM56.3439 11.348C56.3439 11.8942 56.3877 12.4117 56.5272 12.8302L58.4245 12.1978C58.388 12.0883 58.3439 11.8285 58.3439 11.348H56.3439ZM56.5329 12.8468C56.714 13.3599 57.0762 13.743 57.5561 13.9688L58.4077 12.1592C58.3969 12.1541 58.3931 12.1512 58.3939 12.1518C58.3949 12.1526 58.399 12.1557 58.4043 12.1614C58.4096 12.1673 58.414 12.1733 58.417 12.1784C58.42 12.1834 58.4202 12.185 58.4189 12.1812L56.5329 12.8468ZM57.6011 13.9887C58.0364 14.1679 58.5784 14.218 59.1259 14.218V12.218C58.6466 12.218 58.4259 12.1654 58.3626 12.1393L57.6011 13.9887ZM59.1259 14.218C59.406 14.218 59.8494 14.1719 60.4003 14.0995L60.1394 12.1165C59.5756 12.1907 59.2563 12.218 59.1259 12.218V14.218ZM59.2699 13.108V15.11H61.2699V13.108H59.2699ZM60.1641 14.1156C59.4974 14.1865 58.9406 14.22 58.4879 14.22V16.22C59.0325 16.22 59.6636 16.1801 60.3756 16.1044L60.1641 14.1156ZM65.1368 14.912L66.0604 15.2954L66.2171 14.918L66.0647 14.5389L65.1368 14.912ZM60.8908 4.352V3.352H59.411L59.963 4.72506L60.8908 4.352ZM64.3888 4.352L65.3416 4.04834L65.1197 3.352H64.3888V4.352ZM66.7868 11.876L65.8341 12.1797L66.8328 15.3135L67.7474 12.1541L66.7868 11.876ZM68.9648 4.352V3.352H68.2133L68.0043 4.07394L68.9648 4.352ZM72.2868 4.352L73.2207 4.70962L73.7406 3.352H72.2868V4.352ZM66.4568 19.576V20.576H67.1447L67.3907 19.9336L66.4568 19.576ZM63.2008 19.576L62.2773 19.1926L61.703 20.576H63.2008V19.576ZM66.0647 14.5389L61.8187 3.97894L59.963 4.72506L64.209 15.2851L66.0647 14.5389ZM60.8908 5.352H64.3888V3.352H60.8908V5.352ZM63.4361 4.65566L65.8341 12.1797L67.7396 11.5723L65.3416 4.04834L63.4361 4.65566ZM67.7474 12.1541L69.9254 4.63006L68.0043 4.07394L65.8263 11.5979L67.7474 12.1541ZM68.9648 5.352H72.2868V3.352H68.9648V5.352ZM71.353 3.99438L65.523 19.2184L67.3907 19.9336L73.2207 4.70962L71.353 3.99438ZM66.4568 18.576H63.2008V20.576H66.4568V18.576ZM64.1244 19.9594L66.0604 15.2954L64.2133 14.5286L62.2773 19.1926L64.1244 19.9594ZM0.88 33.91L0.0849805 33.3034L-0.12 33.5721V33.91H0.88ZM8.316 24.164L9.11102 24.7706L10.3368 23.164H8.316V24.164ZM1.1 24.164H0.1V25.164H1.1V24.164ZM1.1 21.722V20.722H0.1V21.722H1.1ZM12.54 21.722H13.54V20.722H12.54V21.722ZM12.54 23.79L13.335 24.3966L13.54 24.1279V23.79H12.54ZM5.104 33.536L4.30898 32.9294L3.08319 34.536H5.104V33.536ZM12.672 33.536H13.672V32.536H12.672V33.536ZM12.672 36V37H13.672V36H12.672ZM0.88 36H-0.12V37H0.88V36ZM1.67502 34.5166L9.11102 24.7706L7.52098 23.5574L0.0849805 33.3034L1.67502 34.5166ZM8.316 23.164H1.1V25.164H8.316V23.164ZM2.1 24.164V21.722H0.1V24.164H2.1ZM1.1 22.722H12.54V20.722H1.1V22.722ZM11.54 21.722V23.79H13.54V21.722H11.54ZM11.745 23.1834L4.30898 32.9294L5.89902 34.1426L13.335 24.3966L11.745 23.1834ZM5.104 34.536H12.672V32.536H5.104V34.536ZM11.672 33.536V36H13.672V33.536H11.672ZM12.672 35H0.88V37H12.672V35ZM1.88 36V33.91H-0.12V36H1.88ZM18.3547 36.154L18.4576 35.1593L18.4576 35.1593L18.3547 36.154ZM16.9907 35.89L16.7231 36.8535L16.7276 36.8548L16.9907 35.89ZM15.7147 35.274L15.0611 36.0308L15.0712 36.0395L15.0815 36.048L15.7147 35.274ZM14.9007 34.108L15.8157 33.7043L15.8111 33.6942L14.9007 34.108ZM14.9007 27.354L15.8238 27.7386L15.8238 27.7386L14.9007 27.354ZM15.7587 26.122L15.1295 25.3448L15.124 25.3492L15.1185 25.3538L15.7587 26.122ZM16.9687 25.506L17.2765 26.4574L17.2848 26.4548L17.293 26.4519L16.9687 25.506ZM18.4647 25.176L18.4121 24.1774L18.3931 24.1784L18.3742 24.1801L18.4647 25.176ZM21.5887 25.198L21.4783 26.1919L21.4978 26.1941L21.5175 26.1955L21.5887 25.198ZM22.9307 25.462L23.2229 24.5056L23.2207 24.505L22.9307 25.462ZM24.2067 26.122L23.5531 26.8788L23.5614 26.886L23.5698 26.893L24.2067 26.122ZM25.0647 27.31L25.9878 26.9254L25.9812 26.9097L25.9742 26.8942L25.0647 27.31ZM25.0647 34.086L24.1498 33.6824L24.1448 33.6937L24.14 33.7053L25.0647 34.086ZM24.2507 35.252L23.6138 34.481L23.6031 34.4901L24.2507 35.252ZM23.0407 35.868L23.3229 36.8274L23.3317 36.8248L23.3405 36.822L23.0407 35.868ZM21.5667 36.154L21.4762 35.1581L21.4672 35.159L21.5667 36.154ZM21.3467 34.086L21.6214 35.0475L21.6423 35.0416L21.6629 35.0347L21.3467 34.086ZM21.9847 33.624L21.1435 33.0832L21.1294 33.1052L21.1165 33.1279L21.9847 33.624ZM21.7207 27.464L22.3267 26.6686L22.3267 26.6686L21.7207 27.464ZM17.9587 33.624L17.0905 34.1201L17.1034 34.1428L17.1175 34.1648L17.9587 33.624ZM18.6187 34.086L18.3025 35.0347L18.3231 35.0416L18.344 35.0475L18.6187 34.086ZM19.9827 35.22C19.3408 35.22 18.8357 35.1984 18.4576 35.1593L18.2518 37.1487C18.7244 37.1976 19.3046 37.22 19.9827 37.22V35.22ZM18.4576 35.1593C18.0947 35.1218 17.6941 35.0453 17.2538 34.9252L16.7276 36.8548C17.2553 36.9987 17.764 37.0982 18.2518 37.1487L18.4576 35.1593ZM17.2583 34.9265C16.824 34.8058 16.5351 34.6532 16.3479 34.5L15.0815 36.048C15.5396 36.4228 16.1014 36.6808 16.7231 36.8535L17.2583 34.9265ZM16.3683 34.5172C16.1846 34.3585 15.9919 34.1039 15.8156 33.7044L13.9858 34.5116C14.2495 35.1095 14.5995 35.6322 15.0611 36.0308L16.3683 34.5172ZM15.8111 33.6942C15.6649 33.3726 15.5707 32.9352 15.5707 32.348H13.5707C13.5707 33.1395 13.6965 33.8754 13.9903 34.5218L15.8111 33.6942ZM15.5707 32.348V29.202H13.5707V32.348H15.5707ZM15.5707 29.202C15.5707 28.6004 15.6648 28.1201 15.8238 27.7386L13.9776 26.9694C13.6966 27.6439 13.5707 28.3956 13.5707 29.202H15.5707ZM15.8238 27.7386C15.9969 27.3232 16.1977 27.0579 16.3989 26.8902L15.1185 25.3538C14.6157 25.7728 14.2445 26.3288 13.9776 26.9694L15.8238 27.7386ZM16.3879 26.8992C16.5751 26.7477 16.8592 26.5925 17.2765 26.4574L16.6609 24.5546C16.0809 24.7422 15.5583 24.9976 15.1295 25.3448L16.3879 26.8992ZM17.293 26.4519C17.7394 26.2989 18.1595 26.2079 18.5552 26.1719L18.3742 24.1801C17.8019 24.2321 17.2247 24.3611 16.6444 24.5601L17.293 26.4519ZM18.5173 26.1746C19.0609 26.146 19.549 26.132 19.9827 26.132V24.132C19.5071 24.132 18.9832 24.1473 18.4121 24.1774L18.5173 26.1746ZM19.9827 26.132C20.642 26.132 21.1354 26.1538 21.4783 26.1919L21.6991 24.2041C21.25 24.1542 20.6728 24.132 19.9827 24.132V26.132ZM21.5175 26.1955C21.8394 26.2185 22.2124 26.2892 22.6407 26.419L23.2207 24.505C22.681 24.3414 22.1594 24.2362 21.66 24.2005L21.5175 26.1955ZM22.6385 26.4184C23.071 26.5505 23.3619 26.7137 23.5531 26.8788L24.8603 25.3652C24.4062 24.973 23.8464 24.6961 23.2229 24.5056L22.6385 26.4184ZM23.5698 26.893C23.7619 27.0516 23.9658 27.3114 24.1552 27.7258L25.9742 26.8942C25.6942 26.2819 25.3262 25.7497 24.8436 25.351L23.5698 26.893ZM24.1416 27.6946C24.2987 28.0716 24.3947 28.565 24.3947 29.202H26.3947C26.3947 28.3723 26.2707 27.6044 25.9878 26.9254L24.1416 27.6946ZM24.3947 29.202V32.348H26.3947V29.202H24.3947ZM24.3947 32.348C24.3947 32.8977 24.3032 33.3347 24.1498 33.6824L25.9796 34.4896C26.2663 33.8399 26.3947 33.1183 26.3947 32.348H24.3947ZM24.14 33.7053C23.9828 34.087 23.7985 34.3285 23.6138 34.481L24.8876 36.023C25.3775 35.6182 25.7359 35.0823 25.9894 34.4667L24.14 33.7053ZM23.6031 34.4901C23.4436 34.6256 23.1738 34.7779 22.7409 34.914L23.3405 36.822C23.9343 36.6354 24.4711 36.3771 24.8984 36.0139L23.6031 34.4901ZM22.7585 34.9086C22.3181 35.0382 21.8909 35.1204 21.4762 35.1581L21.6572 37.1499C22.2105 37.0996 22.766 36.9912 23.3229 36.8274L22.7585 34.9086ZM21.4672 35.159C21.0703 35.1987 20.5773 35.22 19.9827 35.22V37.22C20.6201 37.22 21.1832 37.1973 21.6662 37.149L21.4672 35.159ZM19.9827 35.218C20.6108 35.218 21.1773 35.1744 21.6214 35.0475L21.072 33.1245C20.9001 33.1736 20.5573 33.218 19.9827 33.218V35.218ZM21.6629 35.0347C22.1168 34.8834 22.5744 34.6075 22.8529 34.1201L21.1165 33.1279C21.1253 33.1124 21.1346 33.1003 21.1423 33.092C21.1498 33.0839 21.1536 33.0815 21.1507 33.0836C21.1437 33.0886 21.1097 33.1109 21.0305 33.1373L21.6629 35.0347ZM22.8259 34.1648C23.1076 33.7265 23.1827 33.2017 23.1827 32.722H21.1827C21.1827 32.8673 21.1703 32.9669 21.1565 33.0301C21.1425 33.0935 21.131 33.1027 21.1435 33.0832L22.8259 34.1648ZM23.1827 32.722V28.696H21.1827V32.722H23.1827ZM23.1827 28.696C23.1827 27.9627 22.9902 27.1741 22.3267 26.6686L21.1147 28.2594C21.0998 28.2481 21.111 28.246 21.1309 28.2991C21.1542 28.3614 21.1827 28.4845 21.1827 28.696H23.1827ZM22.3267 26.6686C22.006 26.4242 21.6207 26.2942 21.2537 26.2199C20.8771 26.1436 20.4483 26.112 19.9827 26.112V28.112C20.3677 28.112 20.6539 28.139 20.8567 28.1801C21.0691 28.2231 21.1274 28.2691 21.1147 28.2594L22.3267 26.6686ZM19.9827 26.112C19.5171 26.112 19.0883 26.1436 18.7117 26.2199C18.3447 26.2942 17.9594 26.4242 17.6387 26.6686L18.8507 28.2594C18.838 28.2691 18.8964 28.2231 19.1087 28.1801C19.3115 28.139 19.5977 28.112 19.9827 28.112V26.112ZM17.6387 26.6686C16.9752 27.1741 16.7827 27.9627 16.7827 28.696H18.7827C18.7827 28.4845 18.8112 28.3614 18.8345 28.2991C18.8544 28.246 18.8656 28.2481 18.8507 28.2594L17.6387 26.6686ZM16.7827 28.696V32.722H18.7827V28.696H16.7827ZM16.7827 32.722C16.7827 33.1882 16.8468 33.6938 17.0905 34.1201L18.8269 33.1279C18.8357 33.1431 18.8225 33.1262 18.8082 33.053C18.7941 32.9809 18.7827 32.8733 18.7827 32.722H16.7827ZM17.1175 34.1648C17.4083 34.617 17.8497 34.8838 18.3025 35.0347L18.9349 33.1373C18.854 33.1104 18.8126 33.0858 18.7962 33.0743C18.782 33.0643 18.7889 33.0661 18.7999 33.0832L17.1175 34.1648ZM18.344 35.0475C18.7881 35.1744 19.3546 35.218 19.9827 35.218V33.218C19.4081 33.218 19.0653 33.1736 18.8934 33.1245L18.344 35.0475ZM27.8982 25.352V24.352H26.8982V25.352H27.8982ZM31.0662 25.352H32.0662V24.352H31.0662V25.352ZM31.0662 26.65H30.0662L32.0372 26.8892L31.0662 26.65ZM37.3362 25.88L36.6596 26.6163L36.6699 26.6258L36.6805 26.635L37.3362 25.88ZM38.1722 36V37H39.1722V36H38.1722ZM34.9602 36H33.9602V37H34.9602V36ZM34.8282 27.684L33.8865 28.0203L33.8969 28.0495L33.9091 28.0779L34.8282 27.684ZM34.3442 27.244L33.9931 28.1803L34.0022 28.1837L34.0114 28.187L34.3442 27.244ZM31.8582 27.244L32.1008 28.2141L32.1233 28.2085L32.1456 28.2018L31.8582 27.244ZM31.1102 36V37H32.1102V36H31.1102ZM27.8982 36H26.8982V37H27.8982V36ZM27.8982 26.352H31.0662V24.352H27.8982V26.352ZM30.0662 25.352V26.65H32.0662V25.352H30.0662ZM32.0372 26.8892C32.0733 26.7426 32.1651 26.5797 32.5124 26.4251C32.8972 26.2538 33.5271 26.132 34.4762 26.132V24.132C33.4014 24.132 32.4509 24.2632 31.699 24.5979C30.9097 24.9493 30.3085 25.5454 30.0953 26.4108L32.0372 26.8892ZM34.4762 26.132C35.7795 26.132 36.4051 26.3824 36.6596 26.6163L38.0129 25.1437C37.182 24.3802 35.901 24.132 34.4762 24.132V26.132ZM36.6805 26.635C36.938 26.8586 37.1722 27.2952 37.1722 28.19H39.1722C39.1722 26.9728 38.8492 25.8694 37.9919 25.125L36.6805 26.635ZM37.1722 28.19V36H39.1722V28.19H37.1722ZM38.1722 35H34.9602V37H38.1722V35ZM35.9602 36V28.608H33.9602V36H35.9602ZM35.9602 28.608C35.9602 28.1564 35.9164 27.6844 35.7474 27.2901L33.9091 28.0779C33.908 28.0753 33.9232 28.1121 33.9373 28.2104C33.9509 28.3055 33.9602 28.436 33.9602 28.608H35.9602ZM35.77 27.3477C35.5738 26.7982 35.1437 26.4657 34.6771 26.301L34.0114 28.187C34.0365 28.1958 34.0161 28.1932 33.9796 28.1599C33.9388 28.1229 33.905 28.0722 33.8865 28.0203L35.77 27.3477ZM34.6954 26.3077C34.285 26.1538 33.7682 26.112 33.2442 26.112V28.112C33.7176 28.112 33.9342 28.1582 33.9931 28.1803L34.6954 26.3077ZM33.2442 26.112C32.5965 26.112 32.0116 26.154 31.5709 26.2862L32.1456 28.2018C32.2915 28.158 32.6307 28.112 33.2442 28.112V26.112ZM31.6157 26.2739C31.1347 26.3941 30.6414 26.6715 30.3698 27.2148L32.1587 28.1092C32.1466 28.1333 32.131 28.1568 32.1127 28.1777C32.0946 28.1985 32.0775 28.2127 32.0652 28.2213C32.042 28.2377 32.0449 28.2281 32.1008 28.2141L31.6157 26.2739ZM30.3698 27.2148C30.161 27.6324 30.1102 28.1382 30.1102 28.608H32.1102C32.1102 28.4327 32.121 28.3036 32.1357 28.2132C32.151 28.1192 32.1663 28.094 32.1587 28.1092L30.3698 27.2148ZM30.1102 28.608V36H32.1102V28.608H30.1102ZM31.1102 35H27.8982V37H31.1102V35ZM28.8982 36V25.352H26.8982V36H28.8982ZM41.9502 26.034L41.3795 25.2128L41.373 25.2174L41.9502 26.034ZM49.6282 26.012L49.0258 26.8102L49.0342 26.8165L49.0427 26.8227L49.6282 26.012ZM50.8162 31.534V32.534H51.8162V31.534H50.8162ZM43.9082 31.534V30.534H42.9082V31.534H43.9082ZM44.5682 33.822L45.0827 32.9645L45.0827 32.9645L44.5682 33.822ZM50.5082 33.756H51.5082V32.4958L50.281 32.7822L50.5082 33.756ZM50.5082 35.802L50.717 36.78L51.5082 36.6111V35.802H50.5082ZM47.7582 29.708V30.708H48.7582V29.708H47.7582ZM47.3182 27.376L46.7842 28.2215L46.7939 28.2276L46.8037 28.2335L47.3182 27.376ZM44.3262 27.376L43.7715 26.5439L43.7615 26.5507L44.3262 27.376ZM43.9082 29.708H42.9082V30.708H43.9082V29.708ZM46.3282 35.22C44.5128 35.22 43.3191 34.9369 42.609 34.5031C41.9791 34.1183 41.6742 33.587 41.6742 32.766H39.6742C39.6742 34.2477 40.3116 35.4433 41.5664 36.2099C42.741 36.9274 44.3743 37.22 46.3282 37.22V35.22ZM41.6742 32.766V28.938H39.6742V32.766H41.6742ZM41.6742 28.938C41.6742 27.8265 42.0152 27.2127 42.5275 26.8506L41.373 25.2174C40.1839 26.058 39.6742 27.3802 39.6742 28.938H41.6742ZM42.5209 26.8552C43.1379 26.4264 44.2194 26.132 45.9322 26.132V24.132C44.0664 24.132 42.4932 24.439 41.3796 25.2128L42.5209 26.8552ZM45.9322 26.132C47.544 26.132 48.5089 26.4201 49.0258 26.8102L50.2306 25.2138C49.1928 24.4306 47.6938 24.132 45.9322 24.132V26.132ZM49.0427 26.8227C49.4779 27.137 49.8162 27.7393 49.8162 28.938H51.8162C51.8162 27.3794 51.3625 26.031 50.2137 25.2013L49.0427 26.8227ZM49.8162 28.938V31.534H51.8162V28.938H49.8162ZM50.8162 30.534H43.9082V32.534H50.8162V30.534ZM42.9082 31.534V32.502H44.9082V31.534H42.9082ZM42.9082 32.502C42.9082 33.3867 43.2479 34.196 44.0537 34.6795L45.0827 32.9645C45.0085 32.92 44.9082 32.8493 44.9082 32.502H42.9082ZM44.0537 34.6795C44.7499 35.0972 45.7916 35.218 46.9442 35.218V33.218C45.8088 33.218 45.2665 33.0748 45.0827 32.9645L44.0537 34.6795ZM46.9442 35.218C48.0947 35.218 49.3608 35.0506 50.7354 34.7298L50.281 32.7822C49.0156 33.0774 47.9057 33.218 46.9442 33.218V35.218ZM49.5082 33.756V35.802H51.5082V33.756H49.5082ZM50.2994 34.824C49.0698 35.0866 47.7469 35.22 46.3282 35.22V37.22C47.8722 37.22 49.336 37.0748 50.717 36.78L50.2994 34.824ZM48.7582 29.708V28.168H46.7582V29.708H48.7582ZM48.7582 28.168C48.7582 27.4772 48.4378 26.8816 47.8327 26.5185L46.8037 28.2335C46.8138 28.2396 46.8118 28.2398 46.8036 28.2316C46.7949 28.2229 46.7839 28.2093 46.7741 28.1916C46.7643 28.1741 46.7597 28.1596 46.7579 28.1521C46.7563 28.1453 46.7582 28.1494 46.7582 28.168H48.7582ZM47.8522 26.5305C47.3175 26.1928 46.591 26.112 45.8882 26.112V28.112C46.1864 28.112 46.4098 28.1318 46.5702 28.1614C46.737 28.1922 46.7906 28.2255 46.7842 28.2215L47.8522 26.5305ZM45.8882 26.112C45.4672 26.112 45.0826 26.1354 44.7481 26.192C44.4293 26.2459 44.0734 26.3427 43.7715 26.5439L44.8809 28.2081C44.8431 28.2333 44.8794 28.1981 45.0814 28.164C45.2675 28.1326 45.5319 28.112 45.8882 28.112V26.112ZM43.7615 26.5507C43.2108 26.9275 42.9082 27.5002 42.9082 28.168H44.9082C44.9082 28.1527 44.9098 28.1491 44.9085 28.1545C44.9072 28.1603 44.9038 28.1711 44.8971 28.1838C44.8904 28.1964 44.8835 28.2052 44.8795 28.2095C44.8759 28.2135 44.8781 28.2101 44.8909 28.2013L43.7615 26.5507ZM42.9082 28.168V29.708H44.9082V28.168H42.9082ZM43.9082 30.708H47.7582V28.708H43.9082V30.708Z" fill="black" mask="url(#path-1-outside-1_46_127)"/>
</svg>
